<svg xmlns="http://www.w3.org/2000/svg" version="1.1" xmlns:xlink="http://www.w3.org/1999/xlink" xmlns:svgjs="http://svgjs.dev/svgjs" width="1500" height="1500" viewBox="0 0 1500 1500"><rect width="1500" height="1500" fill="#af6834"></rect><g transform="matrix(0.6666666666666666,0,0,0.6666666666666666,249.81250290817587,629.9085874311447)"><svg viewBox="0 0 350 84" data-background-color="#af6834" preserveAspectRatio="xMidYMid meet" height="360" width="1500" xmlns="http://www.w3.org/2000/svg" xmlns:xlink="http://www.w3.org/1999/xlink"><g id="tight-bounds" transform="matrix(1,0,0,1,0.06562398213844745,0.03199439909934654)"><svg viewBox="0 0 349.8687520357231 83.93601120180128" height="83.93601120180128" width="349.8687520357231"><g><svg viewBox="0 0 349.8687520357231 83.93601120180128" height="83.93601120180128" width="349.8687520357231"><g><svg viewBox="0 0 349.8687520357231 83.93601120180128" height="83.93601120180128" width="349.8687520357231"><g id="textblocktransform"><svg viewBox="0 0 349.8687520357231 83.93601120180128" height="83.93601120180128" width="349.8687520357231" id="textblock"><g><svg viewBox="0 0 349.8687520357231 57.3581" height="57.3581" width="349.8687520357231"><g><svg><g></g><g></g></svg></g><g><svg><g><svg></svg></g><g></g></svg></g><g id="text-0"><svg viewBox="0 0 349.8687520357231 57.3581" height="57.3581" width="349.8687520357231"><g transform="matrix(1,0,0,1,0,0)"><svg width="254.9968" viewBox="1.25 -34.75 157.58 35.45" height="57.3581" data-palette-color="#211f1f"><path d="M8.2 0L1.25 0 1.25-29.55 11.35-29.55 13.5-14.45 15.65-29.55 25.75-29.55 25.75 0 18.8 0 18.8-20.6 16.15 0 10.85 0 8.2-20.6 8.2 0ZM4.45-15L4.65-2.35 4.85-2.35 5.1-15 4.9-27.35 4.7-27.35 4.45-15ZM22-15L22.2-2.35 22.4-2.35 22.65-15 22.45-27.35 22.25-27.35 22-15ZM13.5-2.35L13.5-2.35 14.2-5.95Q14.35-6.75 14.53-7.68 14.7-8.6 14.9-9.6L14.9-9.6 15.7-13.9Q16.1-16.2 16.5-18.48 16.9-20.75 17.25-22.6L17.25-22.6 18-26.7 17.9-26.7 15.2-13.95 13.5-3.05 12.95-6.5Q12.7-8.05 12.38-9.98 12.05-11.9 11.7-13.9L11.7-13.9Q11.3-16.15 10.88-18.43 10.45-20.7 10.05-22.55L10.05-22.55 9.15-26.75 9.05-26.75 9.75-22.6Q10.05-20.75 10.43-18.45 10.8-16.15 11.2-13.85L11.2-13.85Q11.55-11.7 11.95-9.68 12.35-7.65 12.7-6.05L12.7-6.05Q13-4.8 13.25-3.7 13.5-2.6 13.5-2.35ZM36.65 0.6L36.65 0.6Q33.7 0.6 31.77-0.08 29.85-0.75 28.92-2.68 28-4.6 28-8.3L28-8.3 28-18.65Q28-22.35 30.25-23.75 32.5-25.15 36.65-25.15L36.65-25.15Q40.8-25.15 43.05-23.75 45.3-22.35 45.3-18.65L45.3-18.65 45.3-8.35Q45.3-4.65 44.37-2.7 43.45-0.75 41.55-0.08 39.65 0.6 36.65 0.6ZM35.35-1.4L35.35-1.4 35.35-1.5Q33.85-1.6 33-2.8 32.15-4 32.2-6.25L32.2-6.25 32.35-12.25 32.2-19.15Q32.15-20.65 32.75-21.7 33.35-22.75 35.15-22.75L35.15-22.75 35.15-22.85Q33.25-22.85 32.55-21.78 31.85-20.7 31.8-19.15L31.8-19.15 31.6-12.25 31.8-6.1Q31.9-3.75 32.87-2.63 33.85-1.5 35.35-1.4ZM37.9-1.5L37.9-1.4Q39.4-1.5 40.4-2.63 41.4-3.75 41.45-6.1L41.45-6.1 41.65-12.25 41.45-19.15Q41.4-20.7 40.7-21.78 40-22.85 38.1-22.85L38.1-22.85 38.1-22.75Q39.9-22.75 40.5-21.7 41.1-20.65 41.05-19.15L41.05-19.15 40.9-12.25 41.05-6.25Q41.15-4 40.27-2.8 39.4-1.6 37.9-1.5L37.9-1.5ZM36.65-3.4L36.65-3.4Q37.05-3.4 37.27-3.73 37.5-4.05 37.5-4.9L37.5-4.9 37.5-19.65Q37.5-20.5 37.27-20.83 37.05-21.15 36.65-21.15L36.65-21.15Q36.25-21.15 36.02-20.83 35.8-20.5 35.8-19.65L35.8-19.65 35.8-4.9Q35.8-4.05 36.02-3.73 36.25-3.4 36.65-3.4ZM60 0L50.65 0 45.7-24.75 53.75-24.75 55.8-9.2 57.5-24.75 64.9-24.75 60 0ZM51.5-13.45L53.59-2.35 53.75-2.35 52.09-13.5 50.34-23.3 50.15-23.3 51.5-13.45ZM59.05-13.5L57.5-2.35 57.65-2.35 59.7-13.5 60.8-23.3 60.59-23.3 59.05-13.5ZM69.99-27.4L69.99-27.4Q68.39-27.4 67.29-28.48 66.19-29.55 66.19-31.05L66.19-31.05Q66.19-32.6 67.29-33.68 68.39-34.75 69.99-34.75L69.99-34.75Q71.59-34.75 72.74-33.68 73.89-32.6 73.89-31.05L73.89-31.05Q73.89-29.55 72.74-28.48 71.59-27.4 69.99-27.4ZM70.04-29.2L70.04-29.2Q71.89-29.2 71.89-31.05L71.89-31.05Q71.89-32.9 70.04-32.9L70.04-32.9Q68.19-32.9 68.19-31.05L68.19-31.05Q68.19-29.2 70.04-29.2ZM70.04-29.3L70.04-29.3Q69.34-29.3 68.89-29.83 68.44-30.35 68.44-31.05L68.44-31.05Q68.44-31.8 68.89-32.27 69.34-32.75 70.04-32.75L70.04-32.75Q70.74-32.75 71.17-32.27 71.59-31.8 71.59-31.05L71.59-31.05Q71.59-30.35 71.17-29.83 70.74-29.3 70.04-29.3ZM73.94 0L66.14 0 66.14-24.75 73.94-24.75 73.94 0ZM69.69-12L69.89-2.35 70.09-2.35 70.34-12 70.14-21.45 69.94-21.45 69.69-12ZM84.84 0.6L84.84 0.6Q81.89 0.6 79.97-0.08 78.04-0.75 77.12-2.68 76.19-4.6 76.19-8.3L76.19-8.3 76.19-18.65Q76.19-22.35 78.44-23.75 80.69-25.15 84.84-25.15L84.84-25.15Q88.99-25.15 91.24-23.75 93.49-22.35 93.49-18.65L93.49-18.65 93.49-11.65 83.99-11.65 83.99-4.9Q83.99-4.05 84.22-3.73 84.44-3.4 84.84-3.4L84.84-3.4Q85.24-3.4 85.47-3.73 85.69-4.05 85.69-4.9L85.69-4.9 85.69-9.4 93.49-9.4 93.49-8.35Q93.49-4.65 92.57-2.7 91.64-0.75 89.74-0.08 87.84 0.6 84.84 0.6ZM89.34-19.1L89.34-13.35 89.74-13.35 89.74-19.1Q89.74-20.75 88.87-21.83 87.99-22.9 86.19-22.9L86.19-22.9 86.19-22.8Q87.94-22.8 88.64-21.73 89.34-20.65 89.34-19.1L89.34-19.1ZM82.99-1.65L82.99-1.65 82.99-1.75Q81.89-1.75 80.99-2.7 80.09-3.65 80.14-5.1L80.14-5.1 80.29-12.25 80.14-19.45Q80.09-20.9 81.27-21.83 82.44-22.75 83.84-22.75L83.84-22.75 83.84-22.85Q82.09-22.85 80.94-21.93 79.79-21 79.74-19.15L79.74-19.15 79.59-12.25 79.74-5.15Q79.79-3.6 80.84-2.63 81.89-1.65 82.99-1.65ZM83.99-19.65L83.99-15 85.69-15 85.69-19.65Q85.69-20.5 85.47-20.83 85.24-21.15 84.84-21.15L84.84-21.15Q84.44-21.15 84.22-20.83 83.99-20.5 83.99-19.65L83.99-19.65ZM85.79-1.75L85.79-1.65Q87.59-1.65 88.67-2.83 89.74-4 89.74-5.65L89.74-5.65 89.74-8.2 89.34-8.2 89.34-5.65Q89.34-4.1 88.44-2.93 87.54-1.75 85.79-1.75L85.79-1.75ZM103.74 0.7L103.74 0.7Q98.74 0.7 96.84-1.15 94.94-3 94.94-7.2L94.94-7.2 94.94-8.9 102.79-8.9 102.79-5.45Q102.79-4.5 102.94-3.95L102.94-3.95Q103.09-3.4 103.64-3.4L103.64-3.4Q104.14-3.4 104.31-3.8 104.49-4.2 104.49-4.75L104.49-4.75 104.49-7.05Q104.49-8.35 103.96-8.95 103.44-9.55 102.49-9.9 101.54-10.25 100.34-10.75L100.34-10.75Q98.44-11.45 97.01-12.8 95.59-14.15 95.59-16.75L95.59-16.75 95.59-18.15Q95.59-21.95 97.61-23.6 99.64-25.25 104.39-25.25L104.39-25.25Q109.19-25.25 111.01-23.45 112.84-21.65 112.84-17.65L112.84-17.65 112.84-16.05 105.29-16.05 105.29-19.2Q105.29-20.2 105.14-20.7L105.14-20.7Q104.99-21.15 104.44-21.15L104.44-21.15Q103.89-21.15 103.74-20.78 103.59-20.4 103.59-19.85L103.59-19.85 103.59-17.5Q103.59-16.35 104.26-15.78 104.94-15.2 105.96-14.9 106.99-14.6 108.04-14.2L108.04-14.2Q109.99-13.55 111.41-12.25 112.84-10.95 112.84-8.5L112.84-8.5 112.84-6.7Q112.84-2.7 110.74-1 108.64 0.7 103.74 0.7ZM103.79-1.45L103.79-1.45Q104.24-1.45 104.84-1.48 105.44-1.5 105.84-1.6L105.84-1.6Q107.44-1.95 108.14-3.33 108.84-4.7 108.84-7.1L108.84-7.1Q108.84-9.2 107.96-10.38 107.09-11.55 105.34-12.2L105.34-12.2 104.09-12.65 102.79-13.25Q101.09-14.05 100.54-15.25 99.99-16.45 99.99-18.3L99.99-18.3Q99.99-20.5 100.56-21.58 101.14-22.65 102.64-22.95L102.64-22.95Q102.99-23.05 103.44-23.08 103.89-23.1 104.29-23.1L104.29-23.1 105.04-23.1Q105.24-23.1 105.39-23.08 105.54-23.05 105.69-23L105.69-23Q107.34-22.75 108.01-21.65 108.69-20.55 108.69-18.3L108.69-18.3 108.79-18.3Q108.94-20.7 108.24-21.78 107.54-22.85 105.69-23.1L105.69-23.1Q105.39-23.15 105.04-23.18 104.69-23.2 104.29-23.2L104.29-23.2Q103.89-23.2 103.44-23.18 102.99-23.15 102.64-23.1L102.64-23.1Q100.94-22.8 100.16-21.7 99.39-20.6 99.39-18.3L99.39-18.3Q99.39-16.35 100.19-15.03 100.99-13.7 102.74-13.05L102.74-13.05 104.09-12.55 105.29-12.05Q107.04-11.35 107.66-10.23 108.29-9.1 108.29-7.1L108.29-7.1Q108.29-4.85 107.76-3.43 107.24-2 105.79-1.75L105.79-1.75Q105.44-1.65 104.84-1.58 104.24-1.5 103.79-1.5L103.79-1.5Q103.39-1.5 102.76-1.55 102.14-1.6 101.84-1.7L101.84-1.7Q100.24-2 99.61-3.38 98.99-4.75 98.99-7.15L98.99-7.15 98.84-7.15Q98.74-4.6 99.39-3.2 100.04-1.8 101.79-1.55L101.79-1.55Q102.09-1.5 102.74-1.48 103.39-1.45 103.79-1.45ZM121.74 0L114.79 0 114.79-29.55 124.89-29.55 127.04-14.45 129.19-29.55 139.29-29.55 139.29 0 132.34 0 132.34-20.6 129.69 0 124.39 0 121.74-20.6 121.74 0ZM117.99-15L118.19-2.35 118.39-2.35 118.64-15 118.44-27.35 118.24-27.35 117.99-15ZM135.54-15L135.74-2.35 135.94-2.35 136.19-15 135.99-27.35 135.79-27.35 135.54-15ZM127.04-2.35L127.04-2.35 127.74-5.95Q127.89-6.75 128.06-7.68 128.24-8.6 128.44-9.6L128.44-9.6 129.24-13.9Q129.64-16.2 130.04-18.48 130.44-20.75 130.79-22.6L130.79-22.6 131.54-26.7 131.44-26.7 128.74-13.95 127.04-3.05 126.49-6.5Q126.24-8.05 125.91-9.98 125.59-11.9 125.24-13.9L125.24-13.9Q124.84-16.15 124.41-18.43 123.99-20.7 123.59-22.55L123.59-22.55 122.69-26.75 122.59-26.75 123.29-22.6Q123.59-20.75 123.96-18.45 124.34-16.15 124.74-13.85L124.74-13.85Q125.09-11.7 125.49-9.68 125.89-7.65 126.24-6.05L126.24-6.05Q126.54-4.8 126.79-3.7 127.04-2.6 127.04-2.35ZM150.18 0.6L150.18 0.6Q147.23 0.6 145.31-0.08 143.38-0.75 142.46-2.68 141.53-4.6 141.53-8.3L141.53-8.3 141.53-18.65Q141.53-22.35 143.78-23.75 146.03-25.15 150.18-25.15L150.18-25.15Q154.33-25.15 156.58-23.75 158.83-22.35 158.83-18.65L158.83-18.65 158.83-11.65 149.33-11.65 149.33-4.9Q149.33-4.05 149.56-3.73 149.78-3.4 150.18-3.4L150.18-3.4Q150.58-3.4 150.81-3.73 151.03-4.05 151.03-4.9L151.03-4.9 151.03-9.4 158.83-9.4 158.83-8.35Q158.83-4.65 157.91-2.7 156.98-0.75 155.08-0.08 153.18 0.6 150.18 0.6ZM154.68-19.1L154.68-13.35 155.08-13.35 155.08-19.1Q155.08-20.75 154.21-21.83 153.33-22.9 151.53-22.9L151.53-22.9 151.53-22.8Q153.28-22.8 153.98-21.73 154.68-20.65 154.68-19.1L154.68-19.1ZM148.33-1.65L148.33-1.65 148.33-1.75Q147.23-1.75 146.33-2.7 145.43-3.65 145.48-5.1L145.48-5.1 145.63-12.25 145.48-19.45Q145.43-20.9 146.61-21.83 147.78-22.75 149.18-22.75L149.18-22.75 149.18-22.85Q147.43-22.85 146.28-21.93 145.13-21 145.08-19.15L145.08-19.15 144.93-12.25 145.08-5.15Q145.13-3.6 146.18-2.63 147.23-1.65 148.33-1.65ZM149.33-19.65L149.33-15 151.03-15 151.03-19.65Q151.03-20.5 150.81-20.83 150.58-21.15 150.18-21.15L150.18-21.15Q149.78-21.15 149.56-20.83 149.33-20.5 149.33-19.65L149.33-19.65ZM151.13-1.75L151.13-1.65Q152.93-1.65 154.01-2.83 155.08-4 155.08-5.65L155.08-5.65 155.08-8.2 154.68-8.2 154.68-5.65Q154.68-4.1 153.78-2.93 152.88-1.75 151.13-1.75L151.13-1.75Z" opacity="1" transform="matrix(1,0,0,1,0,0)" fill="#211f1f" class="wordmark-text-0" data-fill-palette-color="primary"></path></svg></g><g><svg xmlns="http://www.w3.org/2000/svg" xmlns:xlink="http://www.w3.org/1999/xlink" version="1.1" x="268.5387" y="3.552713678800501e-15" viewBox="0.5000000000000002 10.9 71.03853870664699 50.1" enable-background="new 0 0 72 72" xml:space="preserve" height="57.35809999999999" width="81.33005203572311" class="icon-cg-0" data-fill-palette-color="accent" id="cg-0"><g fill="#211f1f" data-fill-palette-color="accent"><path fill="#211f1f" d="M70.2 10.9H22.8c-0.6 0-1.1 0.4-1.3 1L8.8 59.4c-0.2 0.8 0.4 1.6 1.3 1.6h47.4c0.6 0 1.1-0.4 1.3-1l12.7-47.5C71.7 11.7 71.1 10.9 70.2 10.9zM19.6 53.1l-1 3.7c-0.2 0.6-0.7 1-1.3 1h-3.6c-0.9 0-1.5-0.8-1.3-1.6l1-3.7c0.2-0.6 0.7-1 1.3-1h3.6C19.2 51.4 19.9 52.2 19.6 53.1zM35.2 18.9l1-3.7c0.2-0.6 0.7-1 1.3-1h3.6c0.9 0 1.5 0.8 1.3 1.6l-1 3.7c-0.2 0.6-0.7 1-1.3 1h-3.6C35.6 20.6 34.9 19.8 35.2 18.9zM22.4 18.9l1-3.7c0.2-0.6 0.7-1 1.3-1h3.6c0.9 0 1.5 0.8 1.3 1.6l-1 3.7c-0.2 0.6-0.7 1-1.3 1h-3.6C22.8 20.6 22.2 19.8 22.4 18.9zM32.4 53.1l-1 3.7c-0.2 0.6-0.7 1-1.3 1h-3.6c-0.9 0-1.5-0.8-1.3-1.6l1-3.7c0.2-0.6 0.7-1 1.3-1h3.6C32 51.4 32.6 52.2 32.4 53.1zM45.1 53.1l-1 3.7c-0.2 0.6-0.7 1-1.3 1h-3.6c-0.9 0-1.5-0.8-1.3-1.6l1-3.7c0.2-0.6 0.7-1 1.3-1h3.6C44.7 51.4 45.3 52.2 45.1 53.1zM45.6 37.2l-11.7 9.3c-1.4 1.1-3 0.3-2.6-1.2l5-18.5c0.4-1.5 2.5-2.3 3.2-1.2l6.8 9.3C46.8 35.5 46.5 36.5 45.6 37.2zM47.9 18.9l1-3.7c0.2-0.6 0.7-1 1.3-1h3.6c0.9 0 1.5 0.8 1.3 1.6l-1 3.7c-0.2 0.6-0.7 1-1.3 1h-3.6C48.3 20.6 47.6 19.8 47.9 18.9zM57.8 53.1l-1 3.7c-0.2 0.6-0.7 1-1.3 1h-3.6c-0.9 0-1.5-0.8-1.3-1.6l1-3.7c0.2-0.6 0.7-1 1.3-1h3.6C57.4 51.4 58 52.2 57.8 53.1zM67.8 15.9l-1 3.7c-0.2 0.6-0.7 1-1.3 1h-3.6c-0.9 0-1.5-0.8-1.3-1.6l1-3.7c0.2-0.6 0.7-1 1.3-1h3.6C67.4 14.2 68 15 67.8 15.9z" data-fill-palette-color="accent"></path><path fill="#211f1f" d="M3.2 24.1h9.4c1 0 1.7-0.8 1.7-1.7 0-1-0.8-1.7-1.7-1.7H3.2c-1 0-1.7 0.8-1.7 1.7C1.5 23.4 2.3 24.1 3.2 24.1z" data-fill-palette-color="accent"></path><path fill="#211f1f" d="M2.2 33.2h7.4c1 0 1.7-0.8 1.7-1.7 0-1-0.8-1.7-1.7-1.7H2.2c-1 0-1.7 0.8-1.7 1.7C0.5 32.4 1.3 33.2 2.2 33.2z" data-fill-palette-color="accent"></path><path fill="#211f1f" d="M8.4 38.8H3.2c-1 0-1.7 0.8-1.7 1.7 0 1 0.8 1.7 1.7 1.7h5.2c1 0 1.7-0.8 1.7-1.7C10.1 39.6 9.3 38.8 8.4 38.8z" data-fill-palette-color="accent"></path><path fill="#211f1f" d="M5 47.9H2.2c-1 0-1.7 0.8-1.7 1.7 0 1 0.8 1.7 1.7 1.7H5c1 0 1.7-0.8 1.7-1.7C6.7 48.6 6 47.9 5 47.9z" data-fill-palette-color="accent"></path></g></svg></g></svg></g></svg></g><g transform="matrix(1,0,0,1,66.82493163882312,70.8989708156)"><svg viewBox="0 0 216.21888875807687 13.037040386201282" height="13.037040386201282" width="216.21888875807687"><g transform="matrix(1,0,0,1,0,0)"><svg width="216.21888875807687" viewBox="-2.3 -35.9 761.18 45.9" height="13.037040386201282" data-palette-color="#211f1f"><path d="M16.25-30.05L16.25-30.05Q16.25-26.9 20.15-14.75L20.15-14.75 21.75-9.75 22.1-9.85Q22.15-10.9 28.3-30.45L28.3-30.45Q28.3-30.95 27.75-31.43 27.2-31.9 26.6-32.05L26.6-32.05 26.75-32.75Q29.25-32.55 33.6-32.55 37.95-32.55 40.55-32.95L40.55-32.95 40.8-31.7Q38.4-30.95 35.95-30.65L35.95-30.65Q35.7-29.45 35.7-26.38 35.7-23.3 36.52-14.05 37.35-4.8 38.05-1.75L38.05-1.75Q40.7-1.5 43.55-0.8L43.55-0.8 43.4 0.4Q39.7 0 35.4 0 31.1 0 28.45 0.4L28.45 0.4 28.25-0.85Q30.5-1.55 33.05-1.9L33.05-1.9Q33.05-6.65 32.5-15 31.95-23.35 31.1-29.3L31.1-29.3 30.95-29.35Q23.8-9.55 23.45-5.25L23.45-5.25Q20.2-3.3 18.6-1.45L18.6-1.45 18-1.85Q18.1-2.95 18.1-3.5L18.1-3.5Q18.1-9.35 11.55-29.35L11.55-29.35 11.35-29.3 9.8-18.35Q8.8-11.2 8.8-5.45L8.8-5.45Q8.8-3.6 9.22-2.4 9.65-1.2 10.95-0.5L10.95-0.5 10.75 0.2Q9.2 0 5.48 0 1.75 0-1.2 0.4L-1.2 0.4-1.4-0.85Q0.85-1.55 3.4-1.9L3.4-1.9 9-29.8Q3.1-29.8 1.45-28.2L1.45-28.2Q1.1-27.5 1.1-26 1.1-24.5 1.6-23.95L1.6-23.95 1.55-23.6Q0.3-22.85-0.95-21.5L-0.95-21.5Q-1.55-21.55-1.93-22-2.3-22.45-2.3-23.05L-2.3-23.05Q-2.3-25.5 0.65-28.9 3.6-32.3 6.15-33.2L6.15-33.2Q6.55-33.2 9.75-32.88 12.95-32.55 14.73-32.55 16.5-32.55 18.1-32.85L18.1-32.85 18.3-31.6Q16.25-30.8 16.25-30.05ZM58.85-33.3Q64.95-33.3 68.07-29.65 71.2-26 71.2-19.23 71.2-12.45 67.77-7.03 64.35-1.6 58.25 0.75L58.25 0.75Q52.4 0.75 48.85-3.13 45.3-7 45.3-13.25L45.3-13.25Q45.3-23.45 52.7-30.15L52.7-30.15 53.3-29.75Q49.75-24.6 49.75-16.95L49.75-16.95Q49.75-11.5 52.27-7.18 54.8-2.85 59.3-2.85L59.3-2.85Q62.25-2.85 64.25-4.6L64.25-4.6Q66.75-9.2 66.75-15.5L66.75-15.5Q66.75-23.75 63.6-27.6L63.6-27.6Q61.9-29.7 59.35-29.7L59.35-29.7Q58.05-29.7 56.95-28.95 55.85-28.2 55.4-27L55.4-27Q55.4-26 55.85-24.68 56.3-23.35 57-23L57-23 57.1-22.65Q56-21.3 55.45-19.8L55.45-19.8Q55.35-19.75 55.05-19.75L55.05-19.75Q53.25-19.75 53.25-22.95L53.25-22.95Q53.25-28.35 58.85-33.3L58.85-33.3ZM94.65-0.7L94.45 0.4Q91.5 0 87.87 0 84.25 0 82.7 0.2L82.7 0.2 82.5-0.5Q83.1-0.7 83.65-1.13 84.2-1.55 84.2-2.05L84.2-2.05Q84.2-5.7 77.55-26.45L77.55-26.45Q76.95-28.35 76.35-29.8L76.35-29.8Q70.5-29.8 68.85-28.2L68.85-28.2Q68.5-27.5 68.5-26 68.5-24.5 69-23.95L69-23.95 68.95-23.6Q67.7-22.85 66.45-21.5L66.45-21.5Q65.85-21.55 65.47-22 65.1-22.45 65.1-23.05L65.1-23.05Q65.1-25.5 68.05-28.9 71-32.3 73.55-33.2L73.55-33.2Q73.95-33.2 77.15-32.88 80.35-32.55 82.17-32.55 84-32.55 85.55-32.85L85.55-32.85 85.75-31.6Q84.15-31 81.5-30.3L81.5-30.3Q82-26.05 84.12-18.13 86.25-10.2 88.65-3.45L88.65-3.45Q92.85-12.75 94.27-17.57 95.7-22.4 95.7-25.9L95.7-25.9Q95.7-30.6 93.2-32.05L93.2-32.05 93.4-32.75Q94.95-32.55 98.37-32.55 101.8-32.55 104.75-32.95L104.75-32.95 104.95-31.7Q102.7-31 100.15-30.65L100.15-30.65Q100.4-28.9 100.4-27.75L100.4-27.75Q100.4-23.35 98.22-18.3 96.05-13.25 89.85-1.75L89.85-1.75Q92.4-1.4 94.65-0.7L94.65-0.7ZM114.14-30.8L114.14-30.8Q113.59-27.05 113.59-16.8 113.59-6.55 114.24-1.75L114.24-1.75Q116.89-1.5 119.74-0.8L119.74-0.8 119.59 0.4Q115.89 0 111.57 0 107.24 0 104.59 0.4L104.59 0.4 104.39-0.85Q106.64-1.55 109.19-1.9L109.19-1.9Q109.74-6 109.74-14.8L109.74-14.8 109.74-17.75Q109.74-25.85 109.09-30.65L109.09-30.65Q106.54-31 104.29-31.7L104.29-31.7 104.49-32.95Q107.14-32.55 111.47-32.55 115.79-32.55 119.49-32.95L119.49-32.95 119.64-31.75Q116.79-31.05 114.14-30.8ZM139.79-28.3L139.79-28.3Q137.39-29.7 134.09-29.7 130.79-29.7 128.74-28L128.74-28Q128.69-27.3 128.69-26.65L128.69-26.65Q128.69-18.65 137.24-18.65L137.24-18.65 136.99-16.8 136.39-16.8Q132.44-16.8 129.87-15.23 127.29-13.65 127.29-10.15 127.29-6.65 129.69-4.73 132.09-2.8 135.34-2.8 138.59-2.8 140.44-4L140.44-4Q140.79-4.7 140.79-6.2 140.79-7.7 140.29-8.25L140.29-8.25 140.34-8.6Q141.59-9.35 142.84-10.7L142.84-10.7Q143.44-10.65 143.82-10.2 144.19-9.75 144.19-9.15L144.19-9.15Q144.19-6.1 141.32-3.23 138.44-0.35 135.04 0.75L135.04 0.75Q129.69 0.75 126.14-1.85 122.59-4.45 122.59-9.25L122.59-9.25Q122.59-12.7 125.49-15 128.39-17.3 132.09-17.3L132.09-17.3 132.09-17.5Q128.69-17.7 126.42-19.4 124.14-21.1 124.14-24.1L124.14-24.1Q125.94-27.3 128.92-29.85 131.89-32.4 135.29-33.3L135.29-33.3Q138.84-33.3 142.29-32.35L142.29-32.35Q143.09-32.75 144.34-33.9L144.34-33.9 145.39-33.2Q142.09-29.2 141.34-23.65L141.34-23.65 140.04-23.65Q140.04-26.4 139.79-28.3ZM155.29-0.6L155.29-0.6Q155.29-5 157.21-8.2 159.14-11.4 161.24-11.4L161.24-11.4Q161.79-11.4 162.34-11.05L162.34-11.05 162.49-10.7Q161.84-9.45 161.69-7.55L161.69-7.55 161.39-7.35Q161.19-7.45 160.64-7.45 160.09-7.45 159.01-6.85 157.94-6.25 157.34-5.65L157.34-5.65Q156.99-4.95 156.99-4.05L156.99-4.05Q156.99-1.7 160.16-0.03 163.34 1.65 166.29 1.65L166.29 1.65Q172.44 1.65 172.44-5.35L172.44-5.35Q172.44-8 167.39-12L167.39-12Q165.29-13.7 163.19-15.4L163.19-15.4Q158.14-19.4 158.14-22.35L158.14-22.35Q158.14-25.85 161.29-28.88 164.44-31.9 168.44-33.3L168.44-33.3Q172.74-33.3 176.59-32.45L176.59-32.45 176.59-31.45Q173.99-29.05 173.69-24.05L173.69-24.05 172.44-24.05Q172.44-26.7 172.19-28.7L172.19-28.7Q170.04-29.7 167.51-29.7 164.99-29.7 163.24-28.63 161.49-27.55 161.49-25.9 161.49-24.25 162.96-22.58 164.44-20.9 166.54-19.33 168.64-17.75 170.71-16.13 172.79-14.5 174.26-12.63 175.74-10.75 175.74-9L175.74-9Q175.74-4 172.99-0.1 170.24 3.8 165.49 5.75L165.49 5.75Q159.24 5.1 155.49 2.25L155.49 2.25Q155.29 0.85 155.29-0.6ZM187.83-27.45L187.83-27.45Q187.13-21.15 187.13-16.25 187.13-11.35 187.38-9.63 187.63-7.9 188.38-6.4L188.38-6.4Q189.83-3.3 193.98-3.3 198.13-3.3 200.63-5.6L200.63-5.6Q200.88-12.1 200.88-18.6 200.88-25.1 200.33-30.8L200.33-30.8Q197.78-31.15 195.53-31.85L195.53-31.85 195.73-32.95Q198.78-32.55 203.16-32.55 207.53-32.55 210.73-32.95L210.73-32.95 210.88-31.9Q208.03-31.2 205.38-30.95L205.38-30.95Q204.73-27.25 204.73-17.75L204.73-17.75 204.73-14.8Q204.73-5.45 205.38-1.75L205.38-1.75Q208.03-1.5 210.88-0.8L210.88-0.8 210.73 0.4Q207.53 0 204.23 0 200.93 0 200.03 0.05L200.03 0.05 199.88-0.65Q200.33-1.2 200.53-4.2L200.53-4.2Q197.63-0.95 193.23 0.75L193.23 0.75Q187.58 0.75 185.36-2.53 183.13-5.8 183.13-12.05L183.13-12.05Q183.13-14.9 183.48-21.1 183.83-27.3 183.83-28.05 183.83-28.8 183.68-29.8L183.68-29.8Q177.78-29.8 176.13-28.2L176.13-28.2Q175.78-27.5 175.78-26 175.78-24.5 176.28-23.95L176.28-23.95 176.23-23.6Q174.98-22.85 173.73-21.5L173.73-21.5Q173.13-21.55 172.76-22 172.38-22.45 172.38-23.05L172.38-23.05Q172.38-25.5 175.33-28.9 178.28-32.3 180.83-33.2L180.83-33.2Q181.98-33.15 183.86-32.85 185.73-32.55 187.28-32.55 188.83-32.55 190.23-32.75L190.23-32.75 190.43-32.05Q188.18-30.8 187.83-27.45ZM226.48-3.3L226.48-3.3Q228.83-3.3 231.38-4.7L231.38-4.7 231.38-8.8Q231.38-9.95 231.18-12.15L231.18-12.15Q229.43-12.65 226.63-13.15L226.63-13.15 226.78-14.2Q227.93-14.05 228.98-14.05L228.98-14.05Q233.38-14.05 237.03-16.5L237.03-16.5 237.48-15.6Q236.33-14.7 235.68-13.8L235.68-13.8Q234.73-5.1 234.68 2.45L234.68 2.45Q233.23 5.1 229.91 7.55 226.58 10 223.83 10L223.83 10Q223.08 10 222.58 9.6 222.08 9.2 222.08 8.5L222.08 8.5Q223.53 7.4 224.53 5.95L224.53 5.95 224.88 5.9Q225.98 6.75 227.43 6.75 228.88 6.75 229.43 6.45L229.43 6.45Q231.48 3.7 231.48-2.55L231.48-2.55Q228.73-0.4 225.38 0.75L225.38 0.75Q219.38 0.75 216.36-3.03 213.33-6.8 213.33-13.48 213.33-20.15 217.01-25.88 220.68-31.6 226.88-33.3L226.88-33.3Q232.08-33.3 237.33-32.35L237.33-32.35 237.28-31.25Q236.03-31.25 234.88-30.8L234.88-30.8Q233.53-27.65 233.23-23.75L233.23-23.75 231.98-23.75Q231.53-25.8 231.53-28.4L231.53-28.4Q229.18-29.7 225.78-29.7 222.38-29.7 220.33-28L220.33-28Q217.78-23.65 217.78-16.95L217.78-16.95Q217.78-3.3 226.48-3.3ZM254.33-3.3L254.33-3.3Q256.68-3.3 259.23-4.7L259.23-4.7 259.23-8.8Q259.23-9.95 259.03-12.15L259.03-12.15Q257.28-12.65 254.48-13.15L254.48-13.15 254.63-14.2Q255.78-14.05 256.83-14.05L256.83-14.05Q261.23-14.05 264.88-16.5L264.88-16.5 265.33-15.6Q264.18-14.7 263.53-13.8L263.53-13.8Q262.58-5.1 262.53 2.45L262.53 2.45Q261.08 5.1 257.75 7.55 254.43 10 251.68 10L251.68 10Q250.93 10 250.43 9.6 249.93 9.2 249.93 8.5L249.93 8.5Q251.38 7.4 252.38 5.95L252.38 5.95 252.73 5.9Q253.83 6.75 255.28 6.75 256.73 6.75 257.28 6.45L257.28 6.45Q259.33 3.7 259.33-2.55L259.33-2.55Q256.58-0.4 253.23 0.75L253.23 0.75Q247.23 0.75 244.2-3.03 241.18-6.8 241.18-13.48 241.18-20.15 244.85-25.88 248.53-31.6 254.73-33.3L254.73-33.3Q259.93-33.3 265.18-32.35L265.18-32.35 265.13-31.25Q263.88-31.25 262.73-30.8L262.73-30.8Q261.38-27.65 261.08-23.75L261.08-23.75 259.83-23.75Q259.38-25.8 259.38-28.4L259.38-28.4Q257.03-29.7 253.63-29.7 250.23-29.7 248.18-28L248.18-28Q245.63-23.65 245.63-16.95L245.63-16.95Q245.63-3.3 254.33-3.3ZM286.63-28.3L286.63-28.3Q284.23-29.7 280.93-29.7 277.63-29.7 275.58-28L275.58-28Q275.53-27.3 275.53-26.65L275.53-26.65Q275.53-18.65 284.08-18.65L284.08-18.65 283.83-16.8 283.23-16.8Q279.28-16.8 276.7-15.23 274.13-13.65 274.13-10.15 274.13-6.65 276.53-4.73 278.93-2.8 282.18-2.8 285.43-2.8 287.28-4L287.28-4Q287.63-4.7 287.63-6.2 287.63-7.7 287.13-8.25L287.13-8.25 287.18-8.6Q288.43-9.35 289.68-10.7L289.68-10.7Q290.28-10.65 290.65-10.2 291.03-9.75 291.03-9.15L291.03-9.15Q291.03-6.1 288.15-3.23 285.28-0.35 281.88 0.75L281.88 0.75Q276.53 0.75 272.98-1.85 269.43-4.45 269.43-9.25L269.43-9.25Q269.43-12.7 272.33-15 275.23-17.3 278.93-17.3L278.93-17.3 278.93-17.5Q275.53-17.7 273.25-19.4 270.98-21.1 270.98-24.1L270.98-24.1Q272.78-27.3 275.75-29.85 278.73-32.4 282.13-33.3L282.13-33.3Q285.68-33.3 289.13-32.35L289.13-32.35Q289.93-32.75 291.18-33.9L291.18-33.9 292.23-33.2Q288.93-29.2 288.18-23.65L288.18-23.65 286.88-23.65Q286.88-26.4 286.63-28.3ZM293.12-0.6L293.12-0.6Q293.12-5 295.05-8.2 296.97-11.4 299.07-11.4L299.07-11.4Q299.62-11.4 300.17-11.05L300.17-11.05 300.32-10.7Q299.67-9.45 299.52-7.55L299.52-7.55 299.22-7.35Q299.02-7.45 298.47-7.45 297.92-7.45 296.85-6.85 295.77-6.25 295.17-5.65L295.17-5.65Q294.82-4.95 294.82-4.05L294.82-4.05Q294.82-1.7 298-0.03 301.17 1.65 304.12 1.65L304.12 1.65Q310.27 1.65 310.27-5.35L310.27-5.35Q310.27-8 305.22-12L305.22-12Q303.12-13.7 301.02-15.4L301.02-15.4Q295.97-19.4 295.97-22.35L295.97-22.35Q295.97-25.85 299.12-28.88 302.27-31.9 306.27-33.3L306.27-33.3Q310.57-33.3 314.42-32.45L314.42-32.45 314.42-31.45Q311.82-29.05 311.52-24.05L311.52-24.05 310.27-24.05Q310.27-26.7 310.02-28.7L310.02-28.7Q307.87-29.7 305.35-29.7 302.82-29.7 301.07-28.63 299.32-27.55 299.32-25.9 299.32-24.25 300.8-22.58 302.27-20.9 304.37-19.33 306.47-17.75 308.55-16.13 310.62-14.5 312.1-12.63 313.57-10.75 313.57-9L313.57-9Q313.57-4 310.82-0.1 308.07 3.8 303.32 5.75L303.32 5.75Q297.07 5.1 293.32 2.25L293.32 2.25Q293.12 0.85 293.12-0.6ZM322.12-33.3Q325.57-33.15 330.05-32.7 334.52-32.25 336.42-32.25 338.32-32.25 339.27-32.55L339.27-32.55Q341.57-34.75 342.52-35.9L342.52-35.9 343.32-35.3Q340.67-31.85 340.12-28.1L340.12-28.1Q335.17-29.45 331.07-29.75L331.07-29.75Q330.72-24.3 330.72-15.43 330.72-6.55 331.37-1.75L331.37-1.75Q333.87-1.5 336.87-0.8L336.87-0.8 336.72 0.4Q333.02 0 328.7 0 324.37 0 321.72 0.4L321.72 0.4 321.52-0.85Q323.77-1.55 326.32-1.9L326.32-1.9Q326.87-6 326.87-14.8L326.87-14.8 326.87-17.75Q326.87-22.7 326.27-29.9L326.27-29.9 324.97-29.9Q319.07-29.9 317.42-28.3L317.42-28.3Q317.07-27.6 317.07-26.1 317.07-24.6 317.57-24.05L317.57-24.05 317.52-23.7Q316.27-22.95 315.02-21.6L315.02-21.6Q314.42-21.65 314.05-22.1 313.67-22.55 313.67-23.15L313.67-23.15Q313.67-25.6 316.62-29 319.57-32.4 322.12-33.3L322.12-33.3ZM352.67-30.8L352.67-30.8Q352.12-27.05 352.12-16.8 352.12-6.55 352.77-1.75L352.77-1.75Q355.42-1.5 358.27-0.8L358.27-0.8 358.12 0.4Q354.42 0 350.09 0 345.77 0 343.12 0.4L343.12 0.4 342.92-0.85Q345.17-1.55 347.72-1.9L347.72-1.9Q348.27-6 348.27-14.8L348.27-14.8 348.27-17.75Q348.27-25.85 347.62-30.65L347.62-30.65Q345.07-31 342.82-31.7L342.82-31.7 343.02-32.95Q345.67-32.55 349.99-32.55 354.32-32.55 358.02-32.95L358.02-32.95 358.17-31.75Q355.32-31.05 352.67-30.8ZM374.27-33.3Q380.37-33.3 383.49-29.65 386.62-26 386.62-19.23 386.62-12.45 383.19-7.03 379.77-1.6 373.67 0.75L373.67 0.75Q367.82 0.75 364.27-3.13 360.72-7 360.72-13.25L360.72-13.25Q360.72-23.45 368.12-30.15L368.12-30.15 368.72-29.75Q365.17-24.6 365.17-16.95L365.17-16.95Q365.17-11.5 367.69-7.18 370.22-2.85 374.72-2.85L374.72-2.85Q377.67-2.85 379.67-4.6L379.67-4.6Q382.17-9.2 382.17-15.5L382.17-15.5Q382.17-23.75 379.02-27.6L379.02-27.6Q377.32-29.7 374.77-29.7L374.77-29.7Q373.47-29.7 372.37-28.95 371.27-28.2 370.82-27L370.82-27Q370.82-26 371.27-24.68 371.72-23.35 372.42-23L372.42-23 372.52-22.65Q371.42-21.3 370.87-19.8L370.87-19.8Q370.77-19.75 370.47-19.75L370.47-19.75Q368.67-19.75 368.67-22.95L368.67-22.95Q368.67-28.35 374.27-33.3L374.27-33.3ZM414.86-7.6L414.86-14.8Q414.86-23.35 414.11-27.33 413.36-31.3 411.26-32.05L411.26-32.05 411.46-32.75Q413.01-32.55 416.51-32.55 420.01-32.55 422.96-32.95L422.96-32.95 423.11-31.8Q419.56-30.95 418.16-30.8L418.16-30.8Q417.51-25.9 417.51-17.75L417.51-17.75 417.51-14.8Q417.51-5.45 418.16-1.75L418.16-1.75Q420.71-1.45 422.96-0.85L422.96-0.85 422.76 0.4Q420.11 0 417.44 0 414.76 0 413.11 0.15L413.11 0.15Q413.11-1.5 409.86-7.2 406.61-12.9 398.06-26.25L398.06-26.25 397.86-26.15 397.86-17.75Q397.86-5.5 399.71-1.75L399.71-1.75Q402.46-1.5 405.16-0.8L405.16-0.8 405.06 0.4Q401.36 0 397.04 0 392.71 0 390.06 0.4L390.06 0.4 389.86-0.85Q392.11-1.55 394.66-1.9L394.66-1.9Q395.21-6 395.21-14.8L395.21-14.8 395.21-17.75Q395.21-24.8 394.61-29.8L394.61-29.8Q388.71-29.8 387.06-28.2L387.06-28.2Q386.71-27.5 386.71-26 386.71-24.5 387.21-23.95L387.21-23.95 387.16-23.6Q385.91-22.85 384.66-21.5L384.66-21.5Q384.06-21.55 383.69-22 383.31-22.45 383.31-23.05L383.31-23.05Q383.31-25.5 386.26-28.9 389.21-32.3 391.76-33.2L391.76-33.2Q392.36-33.15 395.14-32.85 397.91-32.55 399.71-32.55 401.51-32.55 403.06-32.85L403.06-32.85 403.26-31.6Q401.21-30.75 401.21-29.95L401.21-29.95Q401.46-28.6 404.06-24.28 406.66-19.95 414.66-7.5L414.66-7.5 414.86-7.6ZM424.56-0.6L424.56-0.6Q424.56-5 426.49-8.2 428.41-11.4 430.51-11.4L430.51-11.4Q431.06-11.4 431.61-11.05L431.61-11.05 431.76-10.7Q431.11-9.45 430.96-7.55L430.96-7.55 430.66-7.35Q430.46-7.45 429.91-7.45 429.36-7.45 428.29-6.85 427.21-6.25 426.61-5.65L426.61-5.65Q426.26-4.95 426.26-4.05L426.26-4.05Q426.26-1.7 429.44-0.03 432.61 1.65 435.56 1.65L435.56 1.65Q441.71 1.65 441.71-5.35L441.71-5.35Q441.71-8 436.66-12L436.66-12Q434.56-13.7 432.46-15.4L432.46-15.4Q427.41-19.4 427.41-22.35L427.41-22.35Q427.41-25.85 430.56-28.88 433.71-31.9 437.71-33.3L437.71-33.3Q442.01-33.3 445.86-32.45L445.86-32.45 445.86-31.45Q443.26-29.05 442.96-24.05L442.96-24.05 441.71-24.05Q441.71-26.7 441.46-28.7L441.46-28.7Q439.31-29.7 436.79-29.7 434.26-29.7 432.51-28.63 430.76-27.55 430.76-25.9 430.76-24.25 432.24-22.58 433.71-20.9 435.81-19.33 437.91-17.75 439.99-16.13 442.06-14.5 443.54-12.63 445.01-10.75 445.01-9L445.01-9Q445.01-4 442.26-0.1 439.51 3.8 434.76 5.75L434.76 5.75Q428.51 5.1 424.76 2.25L424.76 2.25Q424.56 0.85 424.56-0.6ZM472.51-30.05L472.51-30.05Q472.51-26.9 476.41-14.75L476.41-14.75 478.01-9.75 478.36-9.85Q478.41-10.9 484.56-30.45L484.56-30.45Q484.56-30.95 484.01-31.43 483.46-31.9 482.86-32.05L482.86-32.05 483.01-32.75Q485.51-32.55 489.86-32.55 494.21-32.55 496.81-32.95L496.81-32.95 497.06-31.7Q494.66-30.95 492.21-30.65L492.21-30.65Q491.96-29.45 491.96-26.38 491.96-23.3 492.78-14.05 493.61-4.8 494.31-1.75L494.31-1.75Q496.96-1.5 499.81-0.8L499.81-0.8 499.66 0.4Q495.96 0 491.66 0 487.36 0 484.71 0.4L484.71 0.4 484.51-0.85Q486.76-1.55 489.31-1.9L489.31-1.9Q489.31-6.65 488.76-15 488.21-23.35 487.36-29.3L487.36-29.3 487.21-29.35Q480.06-9.55 479.71-5.25L479.71-5.25Q476.46-3.3 474.86-1.45L474.86-1.45 474.26-1.85Q474.36-2.95 474.36-3.5L474.36-3.5Q474.36-9.35 467.81-29.35L467.81-29.35 467.61-29.3 466.06-18.35Q465.06-11.2 465.06-5.45L465.06-5.45Q465.06-3.6 465.48-2.4 465.91-1.2 467.21-0.5L467.21-0.5 467.01 0.2Q465.46 0 461.73 0 458.01 0 455.06 0.4L455.06 0.4 454.86-0.85Q457.11-1.55 459.66-1.9L459.66-1.9 465.26-29.8Q459.36-29.8 457.71-28.2L457.71-28.2Q457.36-27.5 457.36-26 457.36-24.5 457.86-23.95L457.86-23.95 457.81-23.6Q456.56-22.85 455.31-21.5L455.31-21.5Q454.71-21.55 454.33-22 453.96-22.45 453.96-23.05L453.96-23.05Q453.96-25.5 456.91-28.9 459.86-32.3 462.41-33.2L462.41-33.2Q462.81-33.2 466.01-32.88 469.21-32.55 470.98-32.55 472.76-32.55 474.36-32.85L474.36-32.85 474.56-31.6Q472.51-30.8 472.51-30.05ZM524.1-33.85Q523.4-30.35 523.15-26.65 522.9-22.95 522.9-14.75 522.9-6.55 523.55-1.75L523.55-1.75Q526.2-1.5 529.05-0.8L529.05-0.8 528.9 0.4Q525.2 0 520.88 0 516.55 0 513.9 0.4L513.9 0.4 513.7-0.85Q515.95-1.55 518.5-1.9L518.5-1.9Q518.9-5.2 519.05-12.55L519.05-12.55Q516.45-12.85 513.33-12.85 510.2-12.85 508.05-12.55L508.05-12.55Q506.85-7.65 506.85-4.7 506.85-1.75 509-0.5L509-0.5 508.8 0.2Q507.25 0 503.58 0 499.9 0 496.95 0.4L496.95 0.4 496.75-0.85Q499-1.55 501.55-1.9L501.55-1.9 509.45-29.9Q503.55-29.9 501.9-28.3L501.9-28.3Q501.55-27.6 501.55-26.1 501.55-24.6 502.05-24.05L502.05-24.05 502-23.7Q500.75-22.95 499.5-21.6L499.5-21.6Q498.9-21.65 498.53-22.1 498.15-22.55 498.15-23.15L498.15-23.15Q498.15-25.6 501.1-29 504.05-32.4 506.6-33.3L506.6-33.3Q514.15-32.45 521.9-31.85L521.9-31.85Q522.6-32.75 523.05-34.15L523.05-34.15 524.1-33.85ZM512.2-29.9L508.6-15.05Q510.85-14.7 513.93-14.7 517-14.7 519.05-15.05L519.05-15.05Q519.05-23.9 518.8-29.5L518.8-29.5 518.65-29.65Q516.05-29.9 512.2-29.9L512.2-29.9ZM535.55 1.1L534.5 0.85Q535.7-4.6 535.7-14.83 535.7-25.05 535.25-29.9L535.25-29.9Q529.7-29.8 528.15-28.3L528.15-28.3Q527.8-27.6 527.8-26.1 527.8-24.6 528.3-24.05L528.3-24.05 528.25-23.7Q527-22.95 525.75-21.6L525.75-21.6Q525.15-21.65 524.78-22.1 524.4-22.55 524.4-23.15L524.4-23.15Q524.4-25.45 527.03-28.6 529.65-31.75 532.05-32.95L532.05-32.95Q536.3-32.55 544.65-32.55L544.65-32.55Q558.3-32.55 558.3-19.3L558.3-19.3Q558.3-12.35 554.65-6.7 551-1.05 544.75 0.75L544.75 0.75Q541.15 0.75 536.7-1.15L536.7-1.15Q535.85 0.15 535.55 1.1L535.55 1.1ZM543.85-30.2L543.85-30.2Q541.55-30.2 540-29.95L540-29.95Q539.55-25.25 539.55-16.95 539.55-8.65 539.8-4.25L539.8-4.25Q542.5-2.85 545.95-2.85 549.4-2.85 551.3-4.55L551.3-4.55Q553.85-9.2 553.85-16.05 553.85-22.9 551.73-26.55 549.6-30.2 543.85-30.2ZM580.1-28.3L580.1-28.3Q577.7-29.7 574.4-29.7 571.1-29.7 569.05-28L569.05-28Q569-27.3 569-26.65L569-26.65Q569-18.65 577.55-18.65L577.55-18.65 577.3-16.8 576.7-16.8Q572.75-16.8 570.17-15.23 567.6-13.65 567.6-10.15 567.6-6.65 570-4.73 572.4-2.8 575.65-2.8 578.9-2.8 580.75-4L580.75-4Q581.1-4.7 581.1-6.2 581.1-7.7 580.6-8.25L580.6-8.25 580.65-8.6Q581.9-9.35 583.15-10.7L583.15-10.7Q583.75-10.65 584.12-10.2 584.5-9.75 584.5-9.15L584.5-9.15Q584.5-6.1 581.62-3.23 578.75-0.35 575.35 0.75L575.35 0.75Q570 0.75 566.45-1.85 562.9-4.45 562.9-9.25L562.9-9.25Q562.9-12.7 565.8-15 568.7-17.3 572.4-17.3L572.4-17.3 572.4-17.5Q569-17.7 566.72-19.4 564.45-21.1 564.45-24.1L564.45-24.1Q566.25-27.3 569.22-29.85 572.2-32.4 575.6-33.3L575.6-33.3Q579.15-33.3 582.6-32.35L582.6-32.35Q583.4-32.75 584.65-33.9L584.65-33.9 585.7-33.2Q582.4-29.2 581.65-23.65L581.65-23.65 580.35-23.65Q580.35-26.4 580.1-28.3ZM597.69-32.95L597.69-32.95Q601.94-32.55 606.92-32.55 611.89-32.55 613.12-32.48 614.34-32.4 615.79-32.1 617.24-31.8 618.04-31.2L618.04-31.2Q620.04-29.85 620.04-27.08 620.04-24.3 618.09-22.03 616.14-19.75 613.34-18.6L613.34-18.6 613.34-18.4Q616.94-18.4 619.19-16.73 621.44-15.05 621.44-11.8L621.44-11.8Q621.44-7.8 617.69-4.1 613.94-0.4 609.59 0.75L609.59 0.75Q606.49 0.75 602.29-1.15L602.29-1.15Q601.44 0.15 601.14 1.1L601.14 1.1 600.09 0.85Q601.29-4.6 601.29-16.25L601.29-16.25Q601.29-20.7 600.89-29.9L600.89-29.9Q595.34-29.8 593.79-28.3L593.79-28.3Q593.44-27.6 593.44-26.1 593.44-24.6 593.94-24.05L593.94-24.05 593.89-23.7Q592.64-22.95 591.39-21.6L591.39-21.6Q590.79-21.65 590.42-22.1 590.04-22.55 590.04-23.15L590.04-23.15Q590.04-25.45 592.67-28.6 595.29-31.75 597.69-32.95ZM607.59-19.1L608.19-19.1Q611.89-19.1 613.54-20.15L613.54-20.15Q615.34-22.15 615.34-25.23 615.34-28.3 613.67-29.18 611.99-30.05 609.32-30.05 606.64-30.05 605.54-29.9L605.54-29.9Q605.14-24.85 605.14-16.75 605.14-8.65 605.39-4.25L605.39-4.25Q607.99-2.85 610.97-2.85 613.94-2.85 615.69-4.05L615.69-4.05Q616.84-6.5 616.84-9.55L616.84-9.55Q616.84-17.25 607.34-17.25L607.34-17.25 607.59-19.1ZM643.54-28.3L643.54-28.3Q641.14-29.7 637.84-29.7 634.54-29.7 632.49-28L632.49-28Q632.44-27.3 632.44-26.65L632.44-26.65Q632.44-18.65 640.99-18.65L640.99-18.65 640.74-16.8 640.14-16.8Q636.19-16.8 633.61-15.23 631.04-13.65 631.04-10.15 631.04-6.65 633.44-4.73 635.84-2.8 639.09-2.8 642.34-2.8 644.19-4L644.19-4Q644.54-4.7 644.54-6.2 644.54-7.7 644.04-8.25L644.04-8.25 644.09-8.6Q645.34-9.35 646.59-10.7L646.59-10.7Q647.19-10.65 647.56-10.2 647.94-9.75 647.94-9.15L647.94-9.15Q647.94-6.1 645.06-3.23 642.19-0.35 638.79 0.75L638.79 0.75Q633.44 0.75 629.89-1.85 626.34-4.45 626.34-9.25L626.34-9.25Q626.34-12.7 629.24-15 632.14-17.3 635.84-17.3L635.84-17.3 635.84-17.5Q632.44-17.7 630.16-19.4 627.89-21.1 627.89-24.1L627.89-24.1Q629.69-27.3 632.66-29.85 635.64-32.4 639.04-33.3L639.04-33.3Q642.59-33.3 646.04-32.35L646.04-32.35Q646.84-32.75 648.09-33.9L648.09-33.9 649.14-33.2Q645.84-29.2 645.09-23.65L645.09-23.65 643.79-23.65Q643.79-26.4 643.54-28.3ZM655.79-33.3Q659.24-33.15 663.71-32.7 668.19-32.25 670.09-32.25 671.99-32.25 672.94-32.55L672.94-32.55Q675.24-34.75 676.19-35.9L676.19-35.9 676.99-35.3Q674.34-31.85 673.79-28.1L673.79-28.1Q668.84-29.45 664.74-29.75L664.74-29.75Q664.39-24.3 664.39-15.43 664.39-6.55 665.04-1.75L665.04-1.75Q667.54-1.5 670.54-0.8L670.54-0.8 670.39 0.4Q666.69 0 662.36 0 658.04 0 655.39 0.4L655.39 0.4 655.19-0.85Q657.44-1.55 659.99-1.9L659.99-1.9Q660.54-6 660.54-14.8L660.54-14.8 660.54-17.75Q660.54-22.7 659.94-29.9L659.94-29.9 658.64-29.9Q652.74-29.9 651.09-28.3L651.09-28.3Q650.74-27.6 650.74-26.1 650.74-24.6 651.24-24.05L651.24-24.05 651.19-23.7Q649.94-22.95 648.69-21.6L648.69-21.6Q648.09-21.65 647.71-22.1 647.34-22.55 647.34-23.15L647.34-23.15Q647.34-25.6 650.29-29 653.24-32.4 655.79-33.3L655.79-33.3ZM681.73-33.3Q685.18-33.15 689.66-32.7 694.13-32.25 696.03-32.25 697.93-32.25 698.88-32.55L698.88-32.55Q701.18-34.75 702.13-35.9L702.13-35.9 702.93-35.3Q700.28-31.85 699.73-28.1L699.73-28.1Q694.78-29.45 690.68-29.75L690.68-29.75Q690.33-24.3 690.33-15.43 690.33-6.55 690.98-1.75L690.98-1.75Q693.48-1.5 696.48-0.8L696.48-0.8 696.33 0.4Q692.63 0 688.31 0 683.98 0 681.33 0.4L681.33 0.4 681.13-0.85Q683.38-1.55 685.93-1.9L685.93-1.9Q686.48-6 686.48-14.8L686.48-14.8 686.48-17.75Q686.48-22.7 685.88-29.9L685.88-29.9 684.58-29.9Q678.68-29.9 677.03-28.3L677.03-28.3Q676.68-27.6 676.68-26.1 676.68-24.6 677.18-24.05L677.18-24.05 677.13-23.7Q675.88-22.95 674.63-21.6L674.63-21.6Q674.03-21.65 673.66-22.1 673.28-22.55 673.28-23.15L673.28-23.15Q673.28-25.6 676.23-29 679.18-32.4 681.73-33.3L681.73-33.3ZM721.08-28.3L721.08-28.3Q718.68-29.7 715.38-29.7 712.08-29.7 710.03-28L710.03-28Q709.98-27.3 709.98-26.65L709.98-26.65Q709.98-18.65 718.53-18.65L718.53-18.65 718.28-16.8 717.68-16.8Q713.73-16.8 711.16-15.23 708.58-13.65 708.58-10.15 708.58-6.65 710.98-4.73 713.38-2.8 716.63-2.8 719.88-2.8 721.73-4L721.73-4Q722.08-4.7 722.08-6.2 722.08-7.7 721.58-8.25L721.58-8.25 721.63-8.6Q722.88-9.35 724.13-10.7L724.13-10.7Q724.73-10.65 725.11-10.2 725.48-9.75 725.48-9.15L725.48-9.15Q725.48-6.1 722.61-3.23 719.73-0.35 716.33 0.75L716.33 0.75Q710.98 0.75 707.43-1.85 703.88-4.45 703.88-9.25L703.88-9.25Q703.88-12.7 706.78-15 709.68-17.3 713.38-17.3L713.38-17.3 713.38-17.5Q709.98-17.7 707.71-19.4 705.43-21.1 705.43-24.1L705.43-24.1Q707.23-27.3 710.21-29.85 713.18-32.4 716.58-33.3L716.58-33.3Q720.13-33.3 723.58-32.35L723.58-32.35Q724.38-32.75 725.63-33.9L725.63-33.9 726.68-33.2Q723.38-29.2 722.63-23.65L722.63-23.65 721.33-23.65Q721.33-26.4 721.08-28.3ZM733.58-1.75L733.58-1.75Q734.23-6.55 734.23-15.53 734.23-24.5 733.73-29.9L733.73-29.9Q728.28-29.8 726.73-28.3L726.73-28.3Q726.38-27.6 726.38-26.1 726.38-24.6 726.88-24.05L726.88-24.05 726.83-23.7Q725.58-22.95 724.33-21.6L724.33-21.6Q723.73-21.65 723.35-22.1 722.98-22.55 722.98-23.15L722.98-23.15Q722.98-25.45 725.6-28.6 728.23-31.75 730.63-32.95L730.63-32.95Q734.88-32.55 742.93-32.55L742.93-32.55Q748.03-32.55 750.68-31.03 753.33-29.5 753.33-25.2L753.33-25.2Q753.33-19.1 747.08-16.7L747.08-16.7 754.08-1.9Q756.63-1.55 758.88-0.85L758.88-0.85 758.68 0.4Q755.73 0 752.3 0 748.88 0 747.33 0.2L747.33 0.2 747.13-0.5Q747.98-1.35 747.98-3.35L747.98-3.35Q747.98-7.35 743.28-16.1L743.28-16.1Q742.03-16.35 740.38-16.35L740.38-16.35 740.53-17.45 741.13-17.45Q744.73-17.45 746.68-19.23 748.63-21 748.63-24.38 748.63-27.75 746.88-28.9 745.13-30.05 741.38-30.05L741.38-30.05Q739.63-30.05 738.48-29.9L738.48-29.9Q738.08-25.45 738.08-15.55 738.08-5.65 738.63-1.9L738.63-1.9Q741.18-1.55 743.43-0.85L743.43-0.85 743.23 0.4Q740.58 0 736.25 0 731.93 0 728.23 0.4L728.23 0.4 728.08-0.8Q730.93-1.5 733.58-1.75Z" opacity="1" transform="matrix(1,0,0,1,0,0)" fill="#211f1f" class="slogan-text-1" data-fill-palette-color="secondary" id="text-1"></path></svg></g></svg></g></svg></g></svg></g></svg></g><defs></defs></svg><rect width="349.8687520357231" height="83.93601120180128" fill="none" stroke="none" visibility="hidden"></rect></g></svg></g></svg>